<svg width="44" height="44" viewBox="0 0 44 44" fill="none" xmlns="http://www.w3.org/2000/svg">
<path d="M40.376 0.125H3.86328C1.86816 0.125 0.125 1.56055 0.125 3.53223V40.126C0.125 42.1084 1.86816 43.875 3.86328 43.875H40.3652C42.3711 43.875 43.875 42.0967 43.875 40.126V3.53223C43.8867 1.56055 42.3711 0.125 40.376 0.125ZM13.6865 36.5928H7.41895V17.1055H13.6865V36.5928ZM10.7695 14.1426H10.7246C8.71875 14.1426 7.41992 12.6494 7.41992 10.7803C7.41992 8.87695 8.75293 7.41895 10.8037 7.41895C12.8545 7.41895 14.1094 8.86621 14.1543 10.7803C14.1533 12.6494 12.8545 14.1426 10.7695 14.1426ZM36.5928 36.5928H30.3252V25.9375C30.3252 23.3848 29.4131 21.6406 27.1455 21.6406C25.4131 21.6406 24.3877 22.8125 23.9316 23.9541C23.7607 24.3643 23.7148 24.9228 23.7148 25.4932V36.5928H17.4473V17.1055H23.7148V19.8174C24.627 18.5186 26.0518 16.6494 29.3672 16.6494C33.4814 16.6494 36.5938 19.3613 36.5938 25.208L36.5928 36.5928Z" fill="#E9F8EB"/>
</svg>
