<svg width="303" height="47" viewBox="0 0 303 47" fill="none" xmlns="http://www.w3.org/2000/svg">
<path d="M33.3106 38.8966L1.86285 17.2039C-1.324 15.0057 -0.240685 10.4288 3.73324 9.35244L37.1566 0.280965C37.8646 0.0254909 38.6233 -0.0574409 39.3699 0.0390586C40.1163 0.135558 40.829 0.408702 41.4489 0.835824C42.0685 1.26295 42.5776 1.83172 42.9334 2.49495C43.2893 3.15817 43.4819 3.89672 43.4952 4.6493L41.5144 35.4117C41.2795 39.0631 36.4975 41.0948 33.3106 38.8966Z" fill="#E9327C"/>
<path d="M23.3366 44.2519L4.80975 8.02035C4.38624 7.19148 4.19988 6.26174 4.27121 5.33368C4.34254 4.40562 4.66879 3.51528 5.21398 2.76087C5.75918 2.00645 6.50213 1.41725 7.36091 1.05825C8.2197 0.699249 9.16094 0.584397 10.0808 0.726367L44.4158 6.0255C45.2062 6.14752 45.9564 6.45542 46.6049 6.9239C47.2531 7.39239 47.7809 8.00806 48.145 8.7203C48.5089 9.43253 48.6987 10.221 48.6986 11.0209C48.6984 11.8207 48.5084 12.6091 48.1443 13.3212L32.3275 44.2536C31.9027 45.0801 31.2584 45.7736 30.4652 46.2576C29.6719 46.7417 28.7608 46.9977 27.8315 46.9975C26.9023 46.9973 25.9911 46.741 25.1981 46.2567C24.4051 45.7722 23.761 45.0785 23.3366 44.2519Z" fill="#1DACE3"/>
<path d="M43.4115 5.86947L26.2958 3.22778L5.28149 8.93361L13.6693 25.3429L33.311 38.8966C33.7444 39.1924 34.221 39.4188 34.7239 39.568L42.1844 24.9783L43.4115 5.86947Z" fill="#001A49"/>
<path d="M70.3969 30.6795C67.4424 30.6795 64.9929 29.7072 63.0482 27.7625C61.1222 25.7991 60.1592 23.3588 60.1592 20.4418C60.1592 17.5247 61.1222 15.0938 63.0482 13.1491C64.9929 11.1857 67.4424 10.204 70.3969 10.204C72.1733 10.204 73.8188 10.6248 75.3335 11.4662C76.8481 12.3077 78.0355 13.439 78.8956 14.8601L74.5481 17.3564C74.1741 16.6646 73.6131 16.1223 72.8652 15.7296C72.1359 15.3182 71.3132 15.1125 70.3969 15.1125C68.8262 15.1125 67.5546 15.6081 66.5823 16.5991C65.6286 17.5715 65.1518 18.8524 65.1518 20.4418C65.1518 22.0312 65.6286 23.3214 66.5823 24.3125C67.5546 25.2848 68.8262 25.771 70.3969 25.771C71.3132 25.771 72.1359 25.5747 72.8652 25.182C73.6131 24.7706 74.1741 24.2096 74.5481 23.4991L78.8956 26.0234C78.0355 27.4633 76.8481 28.6039 75.3335 29.4454C73.8375 30.2681 72.192 30.6795 70.3969 30.6795ZM87.5589 30.6515C85.4833 30.6515 83.7163 29.9409 82.2577 28.5198C80.7992 27.0799 80.0699 25.3222 80.0699 23.2466C80.0699 21.171 80.7992 19.4227 82.2577 18.0015C83.7163 16.5617 85.4833 15.8418 87.5589 15.8418C89.6532 15.8418 91.4203 16.5617 92.8601 18.0015C94.3186 19.4227 95.0479 21.171 95.0479 23.2466C95.0479 25.3222 94.3186 27.0799 92.8601 28.5198C91.4203 29.9409 89.6532 30.6515 87.5589 30.6515ZM87.5589 26.1637C88.3817 26.1637 89.0548 25.8926 89.5784 25.3503C90.1207 24.808 90.3918 24.1068 90.3918 23.2466C90.3918 22.3865 90.1207 21.6853 89.5784 21.143C89.0548 20.6007 88.3817 20.3296 87.5589 20.3296C86.7549 20.3296 86.0817 20.6007 85.5394 21.143C85.0158 21.6853 84.7541 22.3865 84.7541 23.2466C84.7541 24.1068 85.0158 24.808 85.5394 25.3503C86.0817 25.8926 86.7549 26.1637 87.5589 26.1637ZM113.196 15.8418C114.822 15.8418 116.103 16.3654 117.038 17.4125C117.992 18.441 118.469 19.8621 118.469 21.6759V30.2588H113.785V22.2088C113.785 20.8999 113.205 20.2454 112.046 20.2454C111.41 20.2454 110.924 20.4605 110.587 20.8906C110.269 21.3019 110.11 21.8723 110.11 22.6015V30.2588H105.454V22.2088C105.454 20.8999 104.865 20.2454 103.687 20.2454C103.051 20.2454 102.565 20.4605 102.229 20.8906C101.911 21.3019 101.752 21.8723 101.752 22.6015V30.2588H97.0957V16.2345H101.752V17.5528C102.612 16.4121 103.874 15.8418 105.538 15.8418C107.146 15.8418 108.343 16.4402 109.129 17.6369C110.101 16.4402 111.457 15.8418 113.196 15.8418ZM137.081 15.8418C138.708 15.8418 139.988 16.3654 140.923 17.4125C141.877 18.441 142.354 19.8621 142.354 21.6759V30.2588H137.67V22.2088C137.67 20.8999 137.09 20.2454 135.931 20.2454C135.295 20.2454 134.809 20.4605 134.472 20.8906C134.154 21.3019 133.995 21.8723 133.995 22.6015V30.2588H129.339V22.2088C129.339 20.8999 128.75 20.2454 127.572 20.2454C126.936 20.2454 126.45 20.4605 126.114 20.8906C125.796 21.3019 125.637 21.8723 125.637 22.6015V30.2588H120.981V16.2345H125.637V17.5528C126.497 16.4121 127.759 15.8418 129.423 15.8418C131.032 15.8418 132.228 16.4402 133.014 17.6369C133.986 16.4402 135.342 15.8418 137.081 15.8418ZM153.757 16.2345H158.413V30.2588H153.757V28.8564C152.916 30.0531 151.616 30.6515 149.859 30.6515C148.344 30.6515 147.1 30.1372 146.128 29.1088C145.174 28.0616 144.698 26.5657 144.698 24.621V16.2345H149.354V24.032C149.354 24.7613 149.541 25.3129 149.915 25.6869C150.307 26.0608 150.822 26.2478 151.457 26.2478C152.187 26.2478 152.748 26.0328 153.14 25.6027C153.552 25.1539 153.757 24.5182 153.757 23.6954V16.2345ZM169.664 15.8418C171.178 15.8418 172.413 16.3654 173.366 17.4125C174.339 18.441 174.825 19.9276 174.825 21.8723V30.2588H170.169V22.4613C170.169 21.732 169.972 21.1804 169.58 20.8064C169.206 20.4324 168.701 20.2454 168.065 20.2454C167.336 20.2454 166.765 20.4698 166.354 20.9186C165.961 21.3487 165.765 21.9751 165.765 22.7979V30.2588H161.109V16.2345H165.765V17.6369C166.606 16.4402 167.906 15.8418 169.664 15.8418ZM181.559 14.2991C181.036 14.8227 180.409 15.0845 179.68 15.0845C178.951 15.0845 178.315 14.8227 177.773 14.2991C177.249 13.7569 176.987 13.1211 176.987 12.3918C176.987 11.6626 177.249 11.0361 177.773 10.5126C178.315 9.98899 178.951 9.72721 179.68 9.72721C180.409 9.72721 181.036 9.98899 181.559 10.5126C182.102 11.0361 182.373 11.6626 182.373 12.3918C182.373 13.1211 182.102 13.7569 181.559 14.2991ZM177.352 30.2588V16.2345H182.008V30.2588H177.352ZM193.388 20.6942H190.471V24.7613C190.471 25.3783 190.695 25.7617 191.144 25.9113C191.593 26.0608 192.341 26.1076 193.388 26.0515V30.2588C190.602 30.5954 188.638 30.3429 187.498 29.5015C186.376 28.6413 185.815 27.0986 185.815 24.8735V20.6942H183.711V16.2345H185.815V13.7101L190.471 12.3077V16.2345H193.388V20.6942ZM204.623 16.2345H209.784L204.987 30.0344C204.24 32.1474 203.183 33.6714 201.818 34.6063C200.453 35.5413 198.686 35.962 196.517 35.8685V31.4929C197.508 31.4929 198.256 31.3714 198.761 31.1283C199.266 30.8852 199.677 30.4458 199.995 29.81L194.385 16.2345H199.602L202.435 24.3686L204.623 16.2345ZM237.703 10.6248V30.2588H232.71V19.6845L227.942 27.5661H227.437L222.697 19.7125V30.2588H217.676V10.6248H222.697L227.69 19.0113L232.71 10.6248H237.703ZM247.441 30.6515C245.366 30.6515 243.599 29.9409 242.14 28.5198C240.682 27.0799 239.952 25.3222 239.952 23.2466C239.952 21.171 240.682 19.4227 242.14 18.0015C243.599 16.5617 245.366 15.8418 247.441 15.8418C249.536 15.8418 251.303 16.5617 252.743 18.0015C254.201 19.4227 254.93 21.171 254.93 23.2466C254.93 25.3222 254.201 27.0799 252.743 28.5198C251.303 29.9409 249.536 30.6515 247.441 30.6515ZM247.441 26.1637C248.264 26.1637 248.937 25.8926 249.461 25.3503C250.003 24.808 250.274 24.1068 250.274 23.2466C250.274 22.3865 250.003 21.6853 249.461 21.143C248.937 20.6007 248.264 20.3296 247.441 20.3296C246.637 20.3296 245.964 20.6007 245.422 21.143C244.898 21.6853 244.637 22.3865 244.637 23.2466C244.637 24.1068 244.898 24.808 245.422 25.3503C245.964 25.8926 246.637 26.1637 247.441 26.1637ZM265.533 15.8418C267.048 15.8418 268.282 16.3654 269.235 17.4125C270.208 18.441 270.694 19.9276 270.694 21.8723V30.2588H266.038V22.4613C266.038 21.732 265.842 21.1804 265.449 20.8064C265.075 20.4324 264.57 20.2454 263.934 20.2454C263.205 20.2454 262.635 20.4698 262.223 20.9186C261.831 21.3487 261.634 21.9751 261.634 22.7979V30.2588H256.978V16.2345H261.634V17.6369C262.476 16.4402 263.775 15.8418 265.533 15.8418ZM277.345 24.9576C277.812 26.0982 278.86 26.6686 280.486 26.6686C281.496 26.6686 282.347 26.3413 283.039 25.6869L286.405 28.0429C285.021 29.782 283.011 30.6515 280.374 30.6515C277.999 30.6515 276.092 29.9596 274.652 28.5759C273.231 27.1734 272.521 25.4064 272.521 23.2747C272.521 21.1617 273.222 19.3946 274.624 17.9735C276.027 16.5524 277.812 15.8418 279.982 15.8418C282.076 15.8418 283.806 16.543 285.171 17.9454C286.536 19.3479 287.218 21.1056 287.218 23.2186C287.218 23.8357 287.153 24.4153 287.022 24.9576H277.345ZM277.289 21.732H282.674C282.3 20.4231 281.421 19.7686 280.038 19.7686C278.598 19.7686 277.682 20.4231 277.289 21.732ZM297.561 16.2345H302.722L297.926 30.0344C297.178 32.1474 296.121 33.6714 294.756 34.6063C293.391 35.5413 291.624 35.962 289.455 35.8685V31.4929C290.446 31.4929 291.194 31.3714 291.699 31.1283C292.204 30.8852 292.615 30.4458 292.933 29.81L287.324 16.2345H292.541L295.373 24.3686L297.561 16.2345Z" fill="#001A49"/>
</svg>
