<svg width="49" height="47" viewBox="0 0 49 47" fill="none" xmlns="http://www.w3.org/2000/svg">
<path d="M33.3106 38.8966L1.86285 17.2039C-1.324 15.0057 -0.240685 10.4288 3.73324 9.35244L37.1566 0.280965C37.8646 0.0254909 38.6233 -0.0574409 39.3699 0.0390586C40.1163 0.135558 40.829 0.408702 41.4489 0.835824C42.0685 1.26295 42.5776 1.83172 42.9334 2.49495C43.2893 3.15817 43.4819 3.89672 43.4952 4.6493L41.5144 35.4117C41.2795 39.0631 36.4975 41.0948 33.3106 38.8966Z" fill="#E9327C"/>
<path d="M23.3366 44.2519L4.80975 8.02035C4.38624 7.19148 4.19988 6.26174 4.27121 5.33368C4.34254 4.40562 4.66879 3.51528 5.21398 2.76087C5.75918 2.00645 6.50213 1.41725 7.36091 1.05825C8.2197 0.699249 9.16094 0.584397 10.0808 0.726367L44.4158 6.0255C45.2062 6.14752 45.9564 6.45542 46.6049 6.9239C47.2531 7.39239 47.7809 8.00806 48.145 8.7203C48.5089 9.43253 48.6987 10.221 48.6986 11.0209C48.6984 11.8207 48.5084 12.6091 48.1443 13.3212L32.3275 44.2536C31.9027 45.0801 31.2584 45.7736 30.4652 46.2576C29.6719 46.7417 28.7608 46.9977 27.8315 46.9975C26.9023 46.9973 25.9911 46.741 25.1981 46.2567C24.4051 45.7722 23.761 45.0785 23.3366 44.2519Z" fill="#1DACE3"/>
<path d="M43.4114 5.86947L26.2957 3.22778L5.28137 8.93361L13.6692 25.3429L33.3109 38.8966C33.7443 39.1924 34.2209 39.4188 34.7238 39.568L42.1843 24.9783L43.4114 5.86947Z" fill="#001A49"/>
</svg>
