<svg width="50" height="38" viewBox="0 0 50 38" fill="none" xmlns="http://www.w3.org/2000/svg">
<path d="M49.6719 8.53027C49.6719 4.13574 46.4394 0.600586 42.4453 0.600586C37.0351 0.347656 31.5176 0.25 25.8789 0.25H24.1211C18.4961 0.25 12.9687 0.347656 7.55858 0.601562C3.5742 0.601562 0.34178 4.15625 0.34178 8.55078C0.0976398 12.0264 -0.00587587 15.5029 -1.64961e-05 18.9795C-0.00978212 22.4561 0.100895 25.9359 0.332015 29.4189C0.332015 33.8135 3.56444 37.3779 7.54881 37.3779C13.2324 37.6416 19.0625 37.7588 24.9902 37.749C30.9277 37.7686 36.7415 37.6449 42.4316 37.3779C46.4258 37.3779 49.6582 33.8135 49.6582 29.4189C49.8926 25.9326 50 22.4561 49.9902 18.9697C50.0124 15.4932 49.9062 12.0133 49.6719 8.53027ZM20.2148 28.5596V9.37012L34.375 18.96L20.2148 28.5596Z" fill="#E9F8EB"/>
</svg>
